<svg xmlns="http://www.w3.org/2000/svg" width="500" height="500" viewBox="0 0 500 500">
  <!-- Background Circle -->
  <circle cx="250" cy="250" r="240" fill="#f0fdf4" stroke="#22c55e" stroke-width="5" />
  
  <!-- Health Score Gauge -->
  <circle cx="250" cy="250" r="200" fill="none" stroke="#e5e7eb" stroke-width="30" />
  <circle cx="250" cy="250" r="200" fill="none" stroke="#22c55e" stroke-width="30" stroke-dasharray="1256" stroke-dashoffset="314" transform="rotate(-90 250 250)" />
  
  <!-- Central Text -->
  <text x="250" y="240" font-family="Arial, sans-serif" font-size="80" font-weight="bold" text-anchor="middle" fill="#22c55e">85</text>
  <text x="250" y="290" font-family="Arial, sans-serif" font-size="24" font-weight="bold" text-anchor="middle" fill="#4b5563">HEALTH SCORE</text>
  
  <!-- Achievements Icons -->
  <g transform="translate(180, 340)">
    <circle cx="0" cy="0" r="25" fill="#22c55e" />
    <text x="0" y="8" font-family="Arial, sans-serif" font-size="24" font-weight="bold" text-anchor="middle" fill="white">🥗</text>
  </g>
  
  <g transform="translate(250, 350)">
    <circle cx="0" cy="0" r="25" fill="#22c55e" />
    <text x="0" y="8" font-family="Arial, sans-serif" font-size="24" font-weight="bold" text-anchor="middle" fill="white">🍎</text>
  </g>
  
  <g transform="translate(320, 340)">
    <circle cx="0" cy="0" r="25" fill="#22c55e" />
    <text x="0" y="8" font-family="Arial, sans-serif" font-size="24" font-weight="bold" text-anchor="middle" fill="white">🥑</text>
  </g>
  
  <!-- Trophy Icon -->
  <g transform="translate(250, 130)">
    <circle cx="0" cy="0" r="40" fill="#fef3c7" />
    <text x="0" y="15" font-family="Arial, sans-serif" font-size="40" font-weight="bold" text-anchor="middle" fill="#d97706">🏆</text>
  </g>
  
  <!-- Stars -->
  <g transform="translate(160, 180)">
    <circle cx="0" cy="0" r="15" fill="#fef3c7" />
    <text x="0" y="5" font-family="Arial, sans-serif" font-size="16" font-weight="bold" text-anchor="middle" fill="#d97706">⭐</text>
  </g>
  
  <g transform="translate(340, 180)">
    <circle cx="0" cy="0" r="15" fill="#fef3c7" />
    <text x="0" y="5" font-family="Arial, sans-serif" font-size="16" font-weight="bold" text-anchor="middle" fill="#d97706">⭐</text>
  </g>
  
  <!-- App Name -->
  <text x="250" y="450" font-family="Arial, sans-serif" font-size="30" font-weight="bold" text-anchor="middle" fill="#22c55e">AllyRecommends</text>
</svg>
